<?xml version="1.0" encoding="UTF-8" standalone="no"?>
<!DOCTYPE svg PUBLIC "-//W3C//DTD SVG 1.1//EN" "http://www.w3.org/Graphics/SVG/1.1/DTD/svg11.dtd">
<svg version="1.1" xmlns="http://www.w3.org/2000/svg" xmlns:xlink="http://www.w3.org/1999/xlink" preserveAspectRatio="xMidYMid meet" viewBox="0 0 640 640" width="640" height="640"><defs><path d="M278.62 213.79C268.69 213.79 259.2 209.73 252.41 202.57C248.57 198.52 217.85 166.14 214.01 162.09C207.21 154.92 197.71 150.86 187.76 150.87C175.26 150.87 75.18 150.87 62.67 150.87C42.83 150.87 26.74 166.78 26.74 186.4C26.74 226.02 26.74 542.98 26.74 582.6C26.74 602.25 42.85 618.17 62.71 618.17C114.09 618.17 525.14 618.17 576.52 618.17C596.39 618.17 612.5 602.25 612.5 582.6C612.5 549.28 612.5 282.65 612.5 249.32C612.5 229.71 596.43 213.81 576.59 213.79C517 213.79 308.42 213.79 278.62 213.79Z" id="f1357bUXFp"></path><path d="M112.75 21.83L549.44 21.83L549.44 408.41L112.75 408.41L112.75 21.83Z" id="a1lqlxYa3E"></path><path d="M89.82 57.72L513.22 57.72L513.22 431.16L89.82 431.16L89.82 57.72Z" id="b2dCDWt9VY"></path><path d="M137.7 105.21L465.36 105.21L465.36 122.21L137.7 122.21L137.7 105.21Z" id="b27RU31G71"></path><path d="M137.7 159.2L465.36 159.2L465.36 176.2L137.7 176.2L137.7 159.2Z" id="a3xN6tQHI"></path><path d="M137.7 213.2L465.36 213.2L465.36 230.19L137.7 230.19L137.7 213.2Z" id="aM9Re6QQi"></path><path d="M278.58 270.79C268.68 270.79 259.21 274.83 252.42 281.96C248.58 285.99 217.84 318.25 214 322.28C207.21 329.41 197.75 333.45 187.84 333.45C173.15 333.45 55.63 333.45 40.93 333.45C21.09 333.46 5 349.36 5 368.98C5 370.06 5.05 371.14 5.15 372.21C7.01 393.57 21.88 564.47 23.73 585.83C25.42 604.14 40.96 618.16 59.56 618.16C111.57 618.16 527.65 618.16 579.66 618.16C598.26 618.16 613.8 604.14 615.49 585.82C617.92 558.19 637.41 337.18 639.85 309.55C641.66 290.01 627.1 272.73 607.34 270.94C606.26 270.84 605.17 270.79 604.09 270.79C538.99 270.79 311.13 270.79 278.58 270.79Z" id="c4Jxrtwkk"></path></defs><g><g><g><use xlink:href="#f1357bUXFp" opacity="1" fill="#246add" fill-opacity="1"></use><g><use xlink:href="#f1357bUXFp" opacity="1" fill-opacity="0" stroke="#000000" stroke-width="1" stroke-opacity="0"></use></g></g><g><use xlink:href="#a1lqlxYa3E" opacity="1" fill="#dbd8dd" fill-opacity="1"></use><g><use xlink:href="#a1lqlxYa3E" opacity="1" fill-opacity="0" stroke="#000000" stroke-width="1" stroke-opacity="0"></use></g></g><g><use xlink:href="#b2dCDWt9VY" opacity="1" fill="#eeefee" fill-opacity="1"></use><g><use xlink:href="#b2dCDWt9VY" opacity="1" fill-opacity="0" stroke="#000000" stroke-width="1" stroke-opacity="0"></use></g></g><g><use xlink:href="#b27RU31G71" opacity="1" fill="#dbd8dd" fill-opacity="1"></use><g><use xlink:href="#b27RU31G71" opacity="1" fill-opacity="0" stroke="#000000" stroke-width="1" stroke-opacity="0"></use></g></g><g><use xlink:href="#a3xN6tQHI" opacity="1" fill="#dbd8dd" fill-opacity="1"></use><g><use xlink:href="#a3xN6tQHI" opacity="1" fill-opacity="0" stroke="#000000" stroke-width="1" stroke-opacity="0"></use></g></g><g><use xlink:href="#aM9Re6QQi" opacity="1" fill="#dbd8dd" fill-opacity="1"></use><g><use xlink:href="#aM9Re6QQi" opacity="1" fill-opacity="0" stroke="#000000" stroke-width="1" stroke-opacity="0"></use></g></g><g><use xlink:href="#c4Jxrtwkk" opacity="1" fill="#6395f6" fill-opacity="1"></use><g><use xlink:href="#c4Jxrtwkk" opacity="1" fill-opacity="0" stroke="#000000" stroke-width="1" stroke-opacity="0"></use></g></g></g></g></svg>